<?xml version="1.0" encoding="utf-8"?>
<!-- Generator: Adobe Illustrator 16.0.3, SVG Export Plug-In . SVG Version: 6.00 Build 0)  -->
<!DOCTYPE svg PUBLIC "-//W3C//DTD SVG 1.1//EN" "http://www.w3.org/Graphics/SVG/1.1/DTD/svg11.dtd">
<svg version="1.1" xmlns="http://www.w3.org/2000/svg" xmlns:xlink="http://www.w3.org/1999/xlink" x="0px" y="0px" width="960px"
	 height="560px" viewBox="0 0 960 560" enable-background="new 0 0 960 560" xml:space="preserve">
<g id="Layer_2" display="none">
	<rect x="82.5" y="263.5" display="inline" fill="#1E1E1E" width="458" height="216"/>
</g>
<g id="Layer_3" display="none">
	
		<image display="inline" overflow="visible" width="45" height="35" xlink:href="../../images/st-mc-graphs-numbers-wheels-tires.png"  transform="matrix(0.9999 0 0 0.9999 248 315)">
	</image>
	<g display="inline">
		<line fill="none" stroke="#000000" stroke-width="0.3" x1="248" y1="261" x2="248" y2="297"/>
		<line fill="none" stroke="#000000" stroke-width="0.3" x1="194" y1="315" x2="230" y2="315"/>
		<line fill="none" stroke="#000000" stroke-width="0.3" x1="194" y1="349.996" x2="230" y2="349.996"/>
		<line fill="none" stroke="#000000" stroke-width="0.3" x1="248" y1="403.996" x2="248" y2="367.996"/>
		<line fill="none" stroke="#000000" stroke-width="0.3" x1="412.994" y1="261" x2="412.994" y2="297"/>
		<line fill="none" stroke="#000000" stroke-width="0.3" x1="466.994" y1="315" x2="430.994" y2="315"/>
		<line fill="none" stroke="#000000" stroke-width="0.3" x1="466.994" y1="349.996" x2="430.994" y2="349.996"/>
		<line fill="none" stroke="#000000" stroke-width="0.3" x1="412.994" y1="403.996" x2="412.994" y2="367.996"/>
	</g>
</g>
<g id="Layer_6" display="none">
	
		<image display="inline" overflow="visible" width="45" height="35" xlink:href="../../images/st-mc-graphs-numbers-engines.png"  transform="matrix(0.9999 0 0 0.9999 368 315)">
	</image>
</g>
<g id="Layer_5" display="none">
	
		<image display="inline" overflow="visible" width="45" height="35" xlink:href="../../images/st-mc-graphs-numbers-mpg.png"  transform="matrix(0.9999 0 0 0.9999 324 315)">
	</image>
</g>
<g id="Layer_4">
	
		<image overflow="visible" width="32" height="35" xlink:href="../../images/st-mc-graphs-numbers-pricing.png"  transform="matrix(0.9999 0 0 0.9999 292.502 315)">
	</image>
	<g>
		<line fill="none" stroke="#000000" stroke-width="0.3" x1="292.502" y1="261" x2="292.502" y2="297"/>
		<line fill="none" stroke="#000000" stroke-width="0.3" x1="238.502" y1="315" x2="274.502" y2="315"/>
		<line fill="none" stroke="#000000" stroke-width="0.3" x1="238.502" y1="349.996" x2="274.502" y2="349.996"/>
		<line fill="none" stroke="#000000" stroke-width="0.3" x1="292.502" y1="403.996" x2="292.502" y2="367.996"/>
		<line fill="none" stroke="#000000" stroke-width="0.3" x1="324.498" y1="261" x2="324.498" y2="297"/>
		<line fill="none" stroke="#000000" stroke-width="0.3" x1="378.498" y1="315" x2="342.498" y2="315"/>
		<line fill="none" stroke="#000000" stroke-width="0.3" x1="378.498" y1="349.996" x2="342.498" y2="349.996"/>
		<line fill="none" stroke="#000000" stroke-width="0.3" x1="324.498" y1="403.996" x2="324.498" y2="367.996"/>
	</g>
</g>
</svg>
